<svg version="1.0" xmlns="http://www.w3.org/2000/svg"
     width="300.000000pt" height="332.000000pt" viewBox="0 0 300.000000 332.000000"
     preserveAspectRatio="xMidYMid meet">
    <metadata>
    Created by potrace 1.10, written by Peter Selinger 2001-2011
    </metadata>
    <g transform="translate(0.000000,332.000000) scale(0.100000,-0.100000)"
    fill="#000000" stroke="none">
    <path d="M1734 2978 c-6 -11 -34 -17 -89 -21 -273 -21 -525 -37 -690 -42 -104
    -3 -210 -8 -235 -10 -25 -2 -126 -9 -225 -16 -303 -20 -408 -32 -413 -48 -4
    -12 17 -13 132 -7 119 6 137 5 142 -9 4 -8 2 -21 -4 -28 -5 -6 -12 -25 -16
    -40 -6 -23 -9 -27 -21 -17 -24 20 -33 3 -21 -41 9 -36 7 -51 -26 -147 -22 -64
    -33 -111 -27 -116 10 -11 59 93 59 125 0 41 25 11 39 -46 11 -48 12 -67 2
    -107 -10 -36 -10 -52 -2 -62 9 -10 5 -29 -15 -77 -15 -35 -30 -68 -34 -72 -9
    -11 -22 23 -60 162 -25 91 -29 118 -21 140 22 55 52 185 46 200 -9 23 -30 -19
    -46 -91 -7 -32 -17 -58 -21 -58 -13 0 -29 40 -23 59 3 10 -1 24 -10 31 -8 7
    -15 21 -15 31 0 11 -7 19 -15 19 -21 0 -19 -17 11 -123 22 -75 25 -96 16 -121
    -21 -56 -41 -171 -32 -180 16 -16 29 5 35 59 5 36 12 55 21 55 13 0 18 -13 56
    -162 l22 -87 -23 -41 c-13 -24 -20 -48 -16 -58 6 -15 8 -15 22 3 8 11 44 80
    81 153 59 120 65 135 53 155 -11 18 -11 20 0 10 23 -23 28 -14 22 46 -4 50 0
    75 27 153 46 134 52 160 33 156 -14 -3 -63 -131 -63 -164 0 -26 -18 -14 -29
    19 -21 68 -23 104 -6 153 10 27 17 65 16 85 -1 36 -1 36 50 43 56 8 83 -6 92
    -47 2 -12 21 -81 41 -153 l36 -132 -31 -66 c-19 -40 -29 -76 -27 -91 4 -20 -2
    -28 -39 -47 -23 -13 -42 -27 -40 -32 1 -4 -9 -21 -23 -36 -58 -62 -230 -345
    -230 -378 0 -7 9 -12 20 -12 11 0 20 4 20 9 0 9 149 262 160 271 3 3 23 28 44
    56 130 174 275 235 604 255 195 12 398 2 514 -25 35 -8 105 -22 156 -32 74
    -13 109 -26 177 -65 47 -27 89 -49 94 -49 11 0 209 -269 254 -345 45 -78 112
    -234 152 -358 l33 -99 -23 -61 c-81 -224 -102 -272 -178 -400 -24 -41 -50 -73
    -64 -78 -14 -5 -78 -9 -143 -9 -150 0 -247 -19 -363 -70 -113 -49 -299 -159
    -344 -202 -23 -22 -36 -28 -45 -21 -78 60 -269 221 -373 314 -163 146 -489
    389 -522 389 -3 0 -14 6 -22 14 -9 8 -34 16 -56 18 -57 4 -58 -21 -3 -49 68
    -33 432 -311 548 -419 175 -162 300 -263 464 -376 115 -79 159 -58 61 29 l-55
    50 42 30 c67 47 269 151 355 182 107 39 199 53 321 49 l104 -3 -75 -80 c-41
    -45 -94 -94 -118 -110 -24 -16 -78 -55 -119 -87 -101 -76 -257 -158 -415 -217
    l-130 -49 -160 -6 c-88 -4 -197 -9 -241 -13 l-82 -6 -4 49 c-5 53 -1 74 14 74
    5 0 51 -21 103 -46 60 -29 104 -44 122 -42 23 2 6 15 -111 78 -76 41 -144 79
    -150 85 -12 12 -66 29 -66 20 0 -2 9 -19 20 -37 27 -44 24 -84 -9 -138 -22
    -36 -33 -46 -59 -48 -18 -2 -32 0 -32 5 0 4 -7 52 -15 106 -10 67 -12 105 -5
    117 16 31 12 57 -11 63 -12 3 -18 10 -15 15 3 6 -17 27 -46 49 -38 27 -48 39
    -35 41 9 2 40 -15 68 -37 49 -39 79 -51 79 -32 0 4 -19 24 -43 42 -139 109
    -254 233 -330 357 -20 34 -43 62 -50 62 -16 0 -29 133 -62 645 -3 50 -19 205
    -35 345 -37 327 -74 796 -68 860 4 43 3 50 -13 50 -13 0 -19 -11 -25 -46 -14
    -93 18 -543 76 -1064 10 -96 22 -227 25 -290 3 -63 10 -171 15 -240 29 -381
    32 -461 27 -689 -7 -265 0 -311 42 -311 12 0 21 -6 21 -14 0 -8 3 -21 6 -30 5
    -13 -3 -16 -49 -16 -31 0 -58 -4 -61 -9 -11 -17 25 -34 80 -39 44 -4 52 -7 43
    -18 -9 -11 -7 -15 6 -20 10 -4 22 1 31 15 10 13 26 21 44 21 23 0 32 -7 46
    -35 9 -19 19 -35 23 -35 3 0 20 15 36 34 29 34 32 35 123 38 84 4 92 3 87 -13
    -9 -28 10 -30 35 -4 17 18 34 25 61 25 36 0 38 -1 41 -37 2 -31 7 -39 26 -41
    22 -3 23 -1 17 30 -4 18 -8 37 -9 43 -2 17 366 36 588 31 115 -3 212 -8 215
    -12 3 -3 -7 -17 -22 -30 -28 -24 -29 -44 -2 -44 7 0 25 14 40 32 23 27 35 33
    78 36 28 2 75 1 105 -3 44 -5 51 -9 41 -21 -15 -18 1 -18 27 1 14 9 30 12 50
    6 23 -6 30 -15 37 -48 6 -33 13 -42 33 -46 31 -6 36 2 24 43 -5 19 -8 36 -5
    38 8 8 190 -31 212 -46 13 -8 30 -11 40 -8 9 4 50 -1 91 -11 61 -14 76 -22 87
    -44 23 -43 83 -49 69 -7 -5 18 -3 20 12 13 11 -4 46 -13 79 -20 33 -8 110 -25
    170 -40 61 -14 136 -28 168 -32 54 -5 57 -5 57 16 0 11 -3 21 -7 21 -33 0
    -501 116 -509 126 -6 8 -28 73 -48 145 l-38 131 34 74 c34 76 46 78 47 7 1
    -17 6 -33 12 -35 6 -2 14 -50 18 -110 7 -98 19 -138 41 -138 4 0 11 129 14
    287 4 159 9 320 11 358 2 39 6 282 9 540 13 1073 18 1305 25 1400 7 80 5 103
    -6 116 -15 18 -62 17 -73 -2 -17 -27 -23 -160 -21 -459 2 -303 1 -317 -21
    -387 -13 -40 -26 -73 -29 -73 -4 0 -12 27 -19 60 -10 47 -10 66 0 89 7 17 17
    29 23 28 7 -1 14 21 18 53 12 94 10 130 -5 130 -15 0 -19 14 -46 195 -25 161
    -52 253 -85 289 -14 15 -25 29 -25 31 0 2 38 6 85 10 46 4 92 13 101 19 15 11
    15 14 -2 30 -16 16 -30 17 -148 10 -206 -12 -597 -8 -606 6 -6 9 -10 9 -16 -2z
    m566 -96 c0 -13 5 -32 10 -43 8 -14 5 -38 -12 -94 -13 -41 -25 -75 -28 -75 -8
    0 -30 76 -30 102 0 28 -8 39 -39 56 -20 12 -26 12 -38 -1 -13 -13 -13 -20 -2
    -51 14 -38 7 -68 -41 -181 l-17 -40 -13 45 c-6 25 -23 69 -37 98 -25 53 -25
    54 -8 98 19 51 14 87 -10 63 -11 -11 -105 -248 -105 -265 0 -2 5 -4 11 -4 5 0
    19 20 30 45 11 25 22 45 24 45 2 0 20 -49 39 -108 l36 -108 -25 -64 c-14 -35
    -25 -70 -25 -78 0 -26 25 -6 47 37 l22 43 6 -28 c4 -16 11 -42 15 -59 5 -16
    14 -56 20 -87 8 -43 16 -59 31 -63 11 -4 23 -4 27 0 13 13 2 100 -27 210 l-30
    113 29 69 c16 37 30 76 30 86 0 35 17 15 29 -36 12 -46 11 -59 -7 -112 -11
    -33 -23 -75 -27 -94 -11 -53 15 -34 38 27 11 29 23 52 27 52 13 0 29 -103 19
    -122 -13 -24 -11 -31 5 -25 11 4 19 -20 35 -106 25 -130 26 -172 6 -207 -20
    -34 -19 -64 0 -56 10 4 19 -2 25 -18 12 -32 46 -40 55 -12 7 19 8 18 14 -9 5
    -21 1 -45 -16 -84 -36 -84 -25 -108 17 -38 17 28 20 29 27 11 4 -10 7 -44 8
    -76 0 -31 3 -51 7 -45 8 13 11 6 28 -70 7 -29 17 -53 23 -53 8 0 13 -39 14
    -126 3 -106 0 -131 -16 -162 -10 -20 -25 -57 -32 -82 l-12 -45 -9 40 c-7 29
    -4 65 7 126 14 72 15 96 5 145 -25 128 -80 276 -165 443 -41 83 -228 346 -271
    382 -10 9 -58 37 -105 62 -76 42 -104 50 -265 82 -98 19 -200 35 -226 35 -26
    0 -50 5 -53 10 -7 11 24 90 35 90 4 0 14 -18 23 -40 15 -39 42 -54 52 -27 3 7
    -6 40 -19 75 l-24 62 34 81 c37 83 46 129 29 135 -6 3 -26 -37 -44 -87 -19
    -49 -37 -87 -41 -82 -3 4 -21 42 -40 83 -18 41 -42 82 -53 91 -19 16 -11 17
    134 23 85 4 171 9 192 12 45 7 47 -3 13 -76 l-24 -52 -21 46 c-14 33 -26 46
    -40 46 -27 0 -26 -13 4 -88 24 -58 24 -64 9 -87 -19 -28 -10 -53 12 -34 8 6
    16 10 18 8 7 -8 36 -105 47 -157 9 -46 14 -53 32 -50 19 3 22 9 21 53 -1 28
    -15 90 -33 139 l-31 89 29 61 c16 34 33 72 39 86 7 18 11 21 15 10 3 -8 24
    -65 46 -127 l42 -112 -27 -53 c-30 -59 -46 -108 -36 -108 17 1 33 19 53 64 11
    26 24 44 28 40 5 -5 14 -31 21 -59 19 -73 38 -105 60 -105 29 0 26 45 -11 154
    -32 91 -32 91 -15 139 17 49 14 91 -7 84 -7 -2 -16 -18 -22 -35 -5 -18 -12
    -32 -16 -32 -5 0 -69 148 -69 161 0 2 115 4 255 4 l255 0 0 -23z m-971 -107
    c21 -55 45 -114 53 -130 15 -27 14 -32 -19 -97 l-34 -68 -112 0 c-62 0 -168
    -5 -236 -10 -69 -5 -127 -7 -130 -5 -3 3 18 53 47 110 29 57 52 109 52 115 0
    6 5 10 12 8 6 -2 23 -46 38 -98 19 -67 31 -94 43 -96 22 -3 22 1 -16 146 -31
    120 -31 127 -17 172 l15 48 82 0 81 0 15 -44 15 -45 -49 -85 c-27 -48 -49 -92
    -49 -99 0 -7 -5 -18 -12 -25 -6 -6 -9 -15 -5 -18 14 -14 36 8 77 78 24 40 45
    75 47 77 7 9 14 -9 34 -79 24 -88 26 -91 45 -83 17 6 13 40 -22 151 -20 67
    -21 77 -8 107 19 46 18 48 -11 41 -14 -4 -25 -4 -25 -2 0 2 -3 12 -6 21 -6 14
    -1 16 25 13 31 -3 34 -7 70 -103z m-349 80 c13 -16 9 -18 -27 -15 -20 1 -21
    -1 -11 -28 10 -26 6 -41 -35 -133 -26 -57 -50 -104 -53 -104 -4 0 -26 58 -48
    128 -26 81 -48 132 -58 138 -14 8 -18 6 -18 -7 0 -9 -6 -22 -13 -28 -13 -10
    -77 -161 -92 -214 -4 -13 -9 -21 -11 -19 -3 3 -18 52 -34 111 -15 58 -35 119
    -43 136 l-15 30 66 1 c66 1 332 14 363 17 9 1 22 -5 29 -13z m1586 -57 c-3
    -29 -5 -79 -5 -110 -1 -32 -4 -58 -8 -58 -9 0 -8 135 1 185 10 53 18 42 12
    -17z m-1796 -109 c12 -39 32 -95 45 -124 22 -51 23 -55 7 -85 -14 -27 -30 -36
    -100 -59 -79 -26 -126 -30 -137 -10 -3 4 4 13 15 19 11 6 20 21 20 34 0 13 21
    72 46 132 25 60 50 124 56 142 5 18 13 30 18 27 4 -3 18 -37 30 -76z m1584 14
    c10 -65 7 -99 -16 -149 l-22 -49 -13 45 c-12 39 -11 50 7 97 11 30 20 63 20
    73 0 35 17 22 24 -17z m35 -250 c6 -43 17 -101 25 -128 12 -45 11 -54 -7 -95
    l-19 -45 -25 120 c-22 108 -24 125 -12 173 7 28 15 52 19 52 4 0 13 -35 19
    -77z m4 -316 c10 -60 34 -117 49 -117 5 0 8 -12 6 -27 -3 -25 -6 -28 -38 -25
    -51 5 -63 20 -49 61 7 18 9 58 6 91 -4 46 -2 57 8 54 7 -3 15 -20 18 -37z
    m154 -71 c-4 -32 -12 -40 -24 -24 -7 8 -7 25 -1 48 8 29 11 32 19 17 5 -9 8
    -28 6 -41z m-28 -223 c1 -46 5 -63 15 -63 8 0 15 -15 18 -38 7 -48 -2 -142
    -13 -142 -10 0 -49 123 -49 157 0 13 4 21 10 18 13 -8 13 -4 -6 93 -15 72 -15
    89 -3 125 l13 42 7 -65 c4 -36 7 -93 8 -127z m21 -633 c0 -38 -15 -54 -26 -27
    -5 14 11 67 21 67 3 0 5 -18 5 -40z m-95 -70 c9 -10 11 -21 5 -30 -8 -12 -12
    -11 -30 8 -19 20 -23 21 -44 7 -22 -15 -27 -23 -59 -97 -9 -21 -24 -38 -32
    -38 -17 0 -21 -10 59 155 l49 100 19 -45 c11 -25 25 -52 33 -60z m67 -200 c-2
    -152 0 -220 7 -220 14 0 14 -109 1 -130 -14 -23 -42 17 -33 50 13 51 7 152
    -20 390 -2 18 34 130 42 130 3 0 5 -99 3 -220z m-107 141 c4 -25 -5 -63 -41
    -155 -51 -132 -59 -147 -67 -120 -3 11 -8 29 -12 42 -4 15 -2 22 8 22 21 0 39
    24 27 36 -7 7 -1 32 18 75 16 35 35 81 42 102 14 44 17 44 25 -2z m-2181 -53
    c20 -39 20 -38 -4 -38 -16 0 -20 7 -20 35 0 43 4 44 24 3z m64 -118 c26 -41
    29 -52 17 -56 -24 -10 -42 2 -48 33 -4 15 -9 38 -13 51 -11 38 12 24 44 -28z
    m1967 0 c17 -19 17 -20 -1 -26 -36 -11 -49 -21 -71 -55 -44 -68 -65 -91 -76
    -80 -6 6 -1 20 17 41 14 17 26 44 26 59 0 21 9 34 38 53 46 32 45 32 67 8z
    m165 -102 c-28 -38 -60 -114 -60 -144 0 -37 -15 -29 -26 14 -9 33 -6 46 27
    114 20 43 42 92 49 110 l13 33 9 -49 c8 -43 6 -53 -12 -78z m-2177 13 c17 -81
    17 -84 -2 -127 -11 -24 -24 -44 -28 -44 -4 0 -8 59 -8 130 -1 152 11 164 38
    41z m1999 -171 c-16 -36 -38 -83 -47 -105 l-18 -40 -14 45 c-22 74 -21 74 -38
    60 -16 -13 -14 -59 4 -127 11 -39 9 -44 -34 -117 -49 -83 -53 -96 -30 -96 8 0
    29 27 47 60 18 33 35 60 38 60 3 0 15 -36 26 -80 11 -44 18 -80 15 -79 -3 0
    -48 8 -100 17 l-94 17 -13 39 c-13 37 -12 40 17 81 29 41 54 114 42 125 -3 3
    -7 1 -9 -5 -12 -31 -66 -115 -74 -115 -18 0 -11 14 40 85 28 39 74 109 101
    158 28 48 54 87 58 87 5 0 23 33 41 72 l34 73 19 -75 18 -75 -29 -65z m-1843
    128 c75 -71 80 -104 6 -44 -43 35 -77 49 -58 24 5 -7 10 -26 11 -41 1 -16 9
    -55 17 -87 8 -32 16 -69 17 -82 3 -31 -21 -88 -36 -88 -11 0 -52 197 -63 306
    -5 41 11 88 27 82 4 -2 40 -33 79 -70z m2054 -56 c5 -45 2 -59 -18 -88 -13
    -19 -29 -51 -35 -69 -14 -43 -26 -44 -34 -4 -4 20 1 43 13 67 10 20 22 48 26
    61 12 39 36 93 39 90 2 -2 6 -28 9 -57z m-362 -24 c-12 -18 -49 -79 -83 -135
    -34 -56 -65 -100 -69 -98 -3 3 -9 17 -12 32 -16 73 -52 68 -44 -6 3 -25 8 -55
    12 -66 4 -13 -1 -28 -14 -42 -12 -12 -21 -26 -21 -31 0 -5 -7 -15 -15 -22 -20
    -17 -19 -30 4 -30 10 0 26 11 35 25 9 14 21 25 26 25 14 0 12 -32 -4 -53 -12
    -16 -25 -17 -110 -11 -68 5 -96 11 -96 20 0 7 4 15 9 18 5 3 31 43 57 89 60
    103 89 135 189 202 44 29 93 67 109 84 39 41 54 40 27 -1z m-1658 -16 c15 -17
    16 -23 4 -51 -16 -37 -31 -27 -39 24 -3 17 -9 38 -13 49 -7 16 -5 17 11 8 11
    -6 27 -19 37 -30z m-150 -47 c4 -24 4 -59 0 -76 -4 -20 -2 -30 4 -26 6 4 16
    -29 26 -78 16 -82 16 -84 -6 -134 -33 -75 -51 -68 -55 21 -1 39 -10 103 -18
    142 -9 39 -16 79 -16 88 1 25 39 108 50 108 5 0 12 -20 15 -45z m2025 -37 c11
    -58 7 -75 -49 -193 l-33 -69 -18 59 -19 60 48 97 c26 53 51 97 54 97 4 1 11
    -22 17 -51z m-1786 14 c10 -8 20 -37 24 -69 6 -48 3 -62 -27 -128 -19 -41 -39
    -74 -45 -75 -5 0 -18 40 -27 89 -17 88 -17 90 3 142 31 78 30 77 72 41z m1818
    -148 c0 -14 -15 -55 -33 -92 -19 -37 -38 -78 -44 -92 -10 -24 -10 -24 -21 -3
    -10 17 -4 37 36 121 46 98 62 116 62 66z m-590 -9 c0 -2 -12 -25 -27 -50 -26
    -41 -43 -56 -43 -37 0 4 -3 16 -6 28 -4 16 2 26 28 42 32 21 48 27 48 17z
    m-1330 -48 c0 -19 7 -56 15 -83 8 -27 15 -50 15 -51 0 -2 -17 -3 -39 -3 l-38
    0 -5 52 c-6 58 13 118 37 118 10 0 15 -11 15 -33z m150 -26 c0 -10 3 -39 6
    -65 l7 -46 -52 0 c-28 0 -51 2 -51 5 0 2 14 26 30 52 17 26 30 53 30 60 0 7 7
    13 15 13 8 0 15 -8 15 -19z m1060 -3 c0 -7 3 -29 6 -48 l6 -35 -111 3 c-61 2
    -111 7 -111 12 0 4 21 13 48 20 26 6 67 22 92 35 51 27 70 31 70 13z m754 -76
    c10 -42 23 -85 28 -95 5 -10 8 -20 6 -23 -6 -6 -148 29 -148 37 0 4 16 33 35
    64 19 32 37 67 41 77 10 33 19 19 38 -60z m-1624 -7 c0 -8 -9 -15 -20 -15 -20
    0 -26 11 -13 23 12 13 33 7 33 -8z m-415 -16 c0 -7 -8 -15 -17 -17 -18 -3 -25
    18 -11 32 10 10 28 1 28 -15z"/>
    <path d="M175 2689 c-7 -48 -2 -70 11 -56 4 3 9 26 11 50 7 63 -13 69 -22 6z"/>
    <path d="M828 2009 c16 -44 287 -249 328 -249 13 0 24 4 24 9 0 9 -58 63 -100
    94 l-25 18 35 -6 c19 -3 58 -8 85 -11 78 -7 32 12 -59 25 -75 11 -84 15 -157
    71 -43 33 -92 63 -108 66 -30 6 -31 5 -23 -17z"/>
    <path d="M360 1994 c-15 -37 -19 -176 -7 -192 8 -10 3 -19 -18 -36 -16 -13
    -24 -25 -19 -29 20 -12 304 198 304 225 0 17 -24 2 -128 -76 -55 -42 -105 -76
    -112 -76 -9 0 -11 10 -6 31 3 17 6 45 6 61 0 30 0 30 48 24 26 -4 54 -2 62 4
    11 7 5 10 -27 10 -63 0 -72 6 -67 46 5 42 -21 48 -36 8z"/>
    <path d="M668 1944 c-35 -31 -90 -75 -123 -97 -33 -23 -96 -69 -140 -103 -44
    -34 -95 -69 -113 -78 -18 -9 -30 -21 -27 -26 8 -12 46 7 155 77 234 151 288
    192 269 204 -7 4 3 17 25 34 35 27 46 45 26 45 -5 0 -38 -25 -72 -56z"/>
    <path d="M792 1917 c-40 -42 -21 -187 24 -187 13 0 15 6 10 28 -15 63 -18 120
    -6 142 18 33 -2 45 -28 17z"/>
    <path d="M1240 1847 c0 -7 -9 -18 -21 -25 -11 -7 -18 -19 -15 -27 3 -8 -19
    -65 -49 -127 -29 -62 -63 -144 -75 -183 -23 -77 -30 -93 -60 -144 -25 -43 -14
    -63 16 -28 15 18 28 24 43 20 55 -14 183 79 211 152 19 49 -40 115 -80 90 -14
    -9 6 -35 26 -35 45 0 -28 -105 -97 -140 -21 -11 -42 -20 -47 -20 -13 0 132
    340 159 373 11 14 286 -226 554 -483 150 -145 312 -290 287 -258 -12 14 -10
    16 10 10 20 -5 16 2 -22 49 -129 155 -598 611 -733 712 -28 21 -54 44 -56 50
    -9 26 -51 37 -51 14z"/>
    <path d="M665 1789 c-4 -6 3 -22 16 -35 20 -21 21 -26 9 -34 -22 -14 0 -45 31
    -45 21 0 24 4 23 37 -1 21 -9 49 -18 63 -17 26 -50 33 -61 14z"/>
    <path d="M439 1703 c-1 -5 0 -20 1 -35 1 -26 -1 -27 -29 -22 -52 11 -36 -15
    27 -43 31 -15 63 -35 70 -45 16 -21 42 -24 42 -4 0 14 -39 51 -62 58 -6 2 -11
    25 -11 51 0 39 -3 47 -18 47 -11 0 -19 -3 -20 -7z"/>
    <path d="M557 1680 c-17 -16 -17 -22 -6 -54 23 -63 79 -56 79 10 0 33 -21 65
    -43 63 -7 0 -20 -9 -30 -19z"/>
    <path d="M897 1682 c-12 -18 8 -64 34 -83 21 -15 29 -29 29 -50 0 -26 3 -30
    23 -27 17 2 23 11 25 36 3 27 -3 39 -31 65 -18 18 -37 40 -40 50 -6 17 -32 23
    -40 9z"/>
    <path d="M211 1598 c2 -25 187 -208 210 -208 8 0 21 5 29 10 12 8 -5 30 -90
    115 -71 72 -112 105 -127 105 -18 0 -23 -5 -22 -22z"/>
    <path d="M751 1596 c-11 -13 -8 -25 19 -73 46 -82 108 -163 125 -163 24 0 17
    23 -27 91 -81 122 -79 119 -63 119 9 0 20 -12 25 -26 11 -29 33 -28 38 2 6 42
    -90 83 -117 50z"/>
    <path d="M609 1552 c-49 -49 -62 -85 -34 -96 8 -3 19 2 23 11 8 13 16 6 44
    -38 43 -66 65 -86 80 -71 7 7 -6 32 -45 84 -52 72 -54 75 -35 87 15 9 23 10
    31 2 6 -6 17 -11 24 -11 18 0 16 29 -2 36 -8 4 -15 12 -15 19 0 32 -24 24 -71
    -23z"/>
    <path d="M696 1491 c-8 -12 62 -101 79 -101 27 0 25 19 -6 55 -36 41 -65 59
    -73 46z"/>
    <path d="M266 1434 c-10 -27 -7 -44 9 -44 16 0 36 39 28 53 -8 13 -31 8 -37
    -9z"/>
    <path d="M1393 1373 c-24 -25 -46 -58 -50 -72 -3 -14 -26 -52 -51 -84 -24 -32
    -41 -61 -37 -65 9 -9 83 75 92 103 3 11 30 42 59 68 58 53 82 56 102 11 17
    -35 15 -70 -4 -88 -21 -22 -35 -20 -78 9 -44 30 -42 29 -50 9 -9 -22 9 -49 48
    -73 46 -29 77 -26 109 7 35 36 35 85 3 156 -38 83 -79 88 -143 19z"/>
    <path d="M350 1356 c0 -6 212 -53 273 -61 47 -6 48 -7 42 -35 -4 -16 -2 -31 5
    -35 6 -4 8 -16 4 -27 -6 -19 -3 -21 40 -16 52 6 78 22 69 45 -6 15 -28 14 -65
    -2 -15 -6 -18 -2 -18 30 0 30 3 35 18 31 46 -14 157 -26 190 -20 l37 6 -68
    -65 c-48 -45 -66 -69 -61 -80 10 -26 21 -21 87 38 62 57 72 61 96 46 12 -8 12
    -13 -3 -35 -12 -20 -25 -26 -51 -26 -32 0 -34 -1 -34 -37 0 -21 -4 -52 -9 -68
    -10 -32 0 -75 17 -75 6 0 13 27 17 60 5 48 10 60 24 60 22 0 80 64 80 88 -1
    27 -38 102 -53 108 -9 3 -13 13 -9 26 5 19 2 20 -24 13 -35 -10 -37 -10 -244
    4 -91 6 -183 16 -205 21 -40 9 -155 14 -155 6z"/>
    <path d="M1040 1084 c0 -9 -18 -36 -40 -60 -27 -30 -40 -53 -40 -72 0 -31 35
    -75 53 -69 19 6 20 38 1 51 -12 10 -14 17 -7 30 8 15 12 16 24 4 27 -26 80
    -60 86 -55 13 13 -9 57 -37 74 -28 16 -39 33 -22 33 4 0 25 -9 46 -20 43 -21
    56 -19 56 10 0 13 -14 27 -39 39 -21 11 -41 27 -44 36 -8 20 -37 19 -37 -1z"/>
    <path d="M1225 941 c-14 -24 33 -53 165 -100 68 -24 80 -26 80 -12 0 31 -19
    44 -111 76 -52 18 -101 36 -110 40 -10 3 -20 2 -24 -4z"/>
    <path d="M1197 792 c-35 -35 -47 -62 -29 -62 9 0 72 80 72 92 0 13 -4 10 -43
    -30z"/>
    </g>
    </svg>