<svg version="1.0" xmlns="http://www.w3.org/2000/svg"
     width="300.000000pt" height="345.000000pt" viewBox="0 0 300.000000 345.000000"
     preserveAspectRatio="xMidYMid meet">
    <metadata>
    Created by potrace 1.10, written by Peter Selinger 2001-2011
    </metadata>
    <g transform="translate(0.000000,345.000000) scale(0.100000,-0.100000)"
    fill="#000000" stroke="none">
    <path d="M2747 3420 c-4 -17 -9 -20 -24 -12 -10 6 -43 9 -73 8 -383 -20 -760
    -36 -955 -41 -132 -3 -264 -8 -293 -10 -29 -3 -80 -7 -115 -10 -34 -3 -84 -8
    -112 -11 -58 -6 -288 -41 -325 -49 -28 -6 -185 -33 -240 -41 -19 -3 -46 -7
    -60 -10 -55 -10 -68 -12 -145 -20 -44 -4 -84 -6 -90 -5 -8 2 -100 -12 -166
    -25 -22 -4 -28 -1 -33 20 -7 30 -27 34 -47 9 -12 -13 -15 -132 -17 -657 -2
    -353 -4 -681 -3 -731 4 -596 -2 -867 -24 -1020 -3 -16 -8 -127 -11 -246 -7
    -214 -7 -216 16 -257 13 -23 31 -42 40 -42 15 0 18 21 23 168 4 92 14 250 24
    352 15 162 17 316 16 1233 0 576 -4 1067 -7 1090 l-6 42 97 0 c108 0 265 11
    358 25 33 5 78 12 100 15 23 3 52 8 65 10 14 3 117 20 230 39 268 45 482 61
    930 71 272 6 360 11 400 21 14 4 120 10 235 13 116 3 215 9 222 14 6 4 14 4
    17 -1 3 -5 10 -342 16 -750 11 -781 14 -900 31 -1207 5 -104 14 -305 19 -445
    9 -254 24 -524 35 -673 l6 -77 -38 5 c-21 3 -56 7 -78 9 -22 2 -60 8 -85 14
    -64 15 -324 31 -605 37 -132 3 -252 7 -267 9 -15 2 -67 7 -115 11 -48 3 -106
    8 -128 10 -392 43 -655 40 -975 -11 -14 -2 -54 -6 -90 -10 -36 -3 -67 -8 -70
    -9 -3 -2 -64 -13 -135 -25 -71 -11 -134 -25 -138 -29 -5 -5 -7 -19 -5 -32 3
    -26 24 -29 123 -16 28 4 68 9 90 12 22 3 65 10 95 15 30 5 71 12 90 15 19 4
    51 8 70 10 19 2 53 6 75 9 22 3 81 8 130 11 50 3 104 8 120 10 40 6 384 7 393
    2 6 -4 66 -11 207 -23 28 -2 70 -6 95 -8 130 -13 181 -17 355 -26 105 -6 253
    -13 330 -15 132 -4 175 -7 285 -20 135 -17 227 -22 254 -14 16 5 30 8 31 6 1
    -1 9 -29 19 -62 21 -71 31 -85 59 -85 19 0 20 4 14 87 -4 49 -11 178 -17 288
    -5 110 -15 263 -20 340 -31 437 -41 574 -45 605 -16 135 -27 773 -25 1442 1
    464 -1 572 -13 600 -18 42 -37 58 -80 65 -29 4 -35 2 -40 -17z m93 -117 c0
    -13 -4 -23 -9 -23 -17 0 -23 20 -16 48 5 20 8 23 16 11 5 -7 9 -24 9 -36z m57
    -2495 c-2 -18 -4 -4 -4 32 0 36 2 50 4 33 2 -18 2 -48 0 -65z m19 -214 c5 -97
    6 -178 2 -181 -5 -2 -8 6 -9 19 -1 13 -2 52 -3 88 -2 36 -6 107 -11 158 -4 57
    -4 92 2 92 6 0 14 -77 19 -176z m20 -431 c-2 -2 -11 3 -20 12 -12 12 -13 21
    -6 35 6 10 11 47 11 82 2 58 2 55 10 -31 5 -52 7 -96 5 -98z"/>
    <path d="M900 2993 c-14 -3 -36 -13 -51 -24 -14 -10 -39 -17 -55 -16 -27 2
    -29 0 -26 -32 3 -45 72 -129 110 -133 39 -4 42 -31 50 -443 5 -280 10 -359 20
    -358 8 2 12 -11 12 -43 0 -42 -1 -45 -22 -39 -29 9 -32 12 -57 58 -27 48 -26
    53 1 27 42 -39 51 -17 17 40 -12 19 -32 44 -44 55 -23 19 -23 26 -28 230 -3
    143 -12 256 -27 355 -12 80 -24 147 -26 149 -2 3 -10 -1 -17 -8 -13 -13 -14
    -77 -7 -477 4 -206 7 -245 21 -260 9 -11 31 -48 49 -84 40 -81 78 -132 93
    -127 7 3 22 -4 34 -15 45 -42 50 -17 64 295 15 363 -14 667 -64 667 -7 0 -21
    15 -30 33 -9 17 -24 41 -32 53 -15 20 -15 21 47 19 478 -15 766 -17 773 -5 5
    8 17 -10 35 -51 29 -65 30 -100 3 -77 -11 9 -81 12 -251 13 -322 2 -412 -3
    -412 -20 0 -23 67 -34 205 -35 72 0 210 -1 308 -3 l178 -2 8 -30 c7 -29 6 -30
    -31 -33 -36 -3 -38 -5 -37 -35 1 -18 -2 -70 -6 -117 -6 -70 -5 -88 8 -98 40
    -34 63 22 55 138 -4 56 -2 70 10 75 27 10 33 -10 24 -91 -9 -85 0 -308 17
    -414 6 -36 11 -95 11 -132 0 -67 0 -67 -24 -58 -24 9 -99 6 -166 -6 -19 -4
    -44 -8 -55 -10 -11 -1 -31 -6 -45 -9 -14 -3 -126 -8 -250 -9 -249 -4 -259 -5
    -274 -30 -16 -25 10 -36 64 -28 25 3 56 6 70 5 147 -9 431 -12 451 -5 13 5 47
    12 74 16 58 7 106 15 120 20 6 2 19 -2 29 -10 28 -20 55 -2 48 32 -3 18 -1 25
    6 20 6 -3 14 -1 18 5 10 17 6 145 -11 329 -17 182 -33 462 -28 470 2 2 8 -1
    12 -9 11 -17 55 -10 58 9 5 26 -11 39 -50 42 -20 1 -37 7 -37 13 0 5 -19 48
    -43 95 -32 63 -49 86 -65 88 -13 2 -22 -2 -22 -10 0 -10 -29 -12 -137 -11 -76
    2 -169 7 -208 13 -38 5 -104 12 -145 16 -41 3 -102 10 -135 15 -61 9 -141 10
    -185 2z m-50 -98 c0 -14 -4 -25 -9 -25 -12 0 -23 29 -15 41 10 18 24 9 24 -16z
    m980 -162 c0 -18 -10 -16 -26 5 -22 28 -18 48 6 27 11 -10 20 -24 20 -32z"/>
    <path d="M1552 2698 c-7 -7 -12 -30 -12 -52 0 -23 -5 -59 -10 -81 -11 -46 -6
    -71 17 -79 22 -9 43 12 43 43 l1 26 15 -28 c18 -33 47 -33 52 1 6 37 -36 160
    -58 172 -24 13 -33 13 -48 -2z m43 -77 c-3 -5 -1 -12 4 -15 15 -10 6 -39 -13
    -42 -14 -2 -17 2 -12 19 3 12 6 28 6 35 0 6 5 12 11 12 5 0 8 -4 4 -9z"/>
    <path d="M1199 2678 c-1 -7 -1 -30 -2 -50 0 -21 -4 -35 -8 -32 -5 3 -9 11 -9
    18 0 7 -12 23 -26 37 -25 23 -26 24 -37 4 -44 -74 -29 -194 18 -155 8 7 15 24
    15 38 l0 26 16 -22 c15 -22 44 -30 44 -13 0 5 8 11 18 13 15 4 20 18 25 64 4
    36 2 63 -5 71 -13 17 -48 17 -49 1z"/>
    <path d="M1415 2680 c-3 -5 -19 -10 -36 -10 -33 0 -35 -8 -14 -68 11 -32 12
    -48 5 -63 -6 -11 -8 -24 -4 -30 11 -18 58 -31 91 -24 31 6 32 7 30 53 -2 47
    -2 47 -39 50 -30 3 -38 7 -38 23 0 14 7 19 28 19 38 0 65 21 56 43 -7 19 -68
    24 -79 7z m35 -140 c9 -17 8 -20 -10 -20 -11 0 -20 2 -20 4 0 2 -3 11 -6 20
    -9 24 23 20 36 -4z"/>
    <path d="M1637 2364 c-53 -14 -77 -30 -77 -49 0 -7 7 -16 16 -19 13 -5 14 -19
    8 -89 -5 -71 -4 -86 10 -100 19 -19 34 -21 55 -8 17 11 22 148 7 195 -8 26 -7
    28 12 22 12 -4 39 -2 62 5 50 15 55 44 9 53 -38 7 -41 7 -102 -10z"/>
    <path d="M1173 2358 c-13 -17 -56 -266 -52 -298 3 -19 11 -26 31 -28 32 -4 43
    13 53 81 4 26 9 47 11 47 1 0 18 -14 36 -30 31 -29 85 -52 101 -43 18 10 4 44
    -28 70 -34 28 -47 63 -22 63 19 0 57 46 57 69 0 12 -6 21 -12 21 -21 0 -76
    -37 -88 -59 -19 -37 -29 -23 -32 47 -3 59 -5 67 -24 70 -11 2 -25 -3 -31 -10z
    m45 -139 c11 -17 10 -23 -10 -39 -31 -26 -37 -25 -32 8 10 58 20 66 42 31z"/>
    <path d="M1442 2267 c-19 -23 -36 -146 -23 -173 13 -29 56 -33 70 -6 13 24 24
    145 16 171 -7 24 -46 29 -63 8z"/>
    <path d="M758 1632 c-46 -26 -143 -114 -205 -185 -31 -35 -32 -35 -49 -16 -36
    39 -62 18 -44 -37 11 -33 10 -38 -14 -63 -47 -49 -22 -74 26 -26 l25 25 28
    -41 c15 -23 79 -112 143 -199 65 -87 148 -207 186 -266 122 -192 118 -188 132
    -170 6 9 17 16 24 16 7 0 84 73 171 162 87 89 160 160 162 158 3 -3 19 -39 37
    -80 42 -98 90 -152 90 -101 0 16 11 20 81 26 44 4 83 5 86 2 3 -3 -2 -25 -10
    -49 -9 -24 -18 -59 -22 -79 -7 -46 10 -93 30 -85 8 3 15 1 15 -3 0 -5 15 -14
    33 -20 17 -7 86 -43 152 -81 180 -103 259 -127 329 -100 20 7 26 17 26 39 0
    16 17 71 39 122 76 185 123 375 166 674 23 163 24 180 10 202 -13 19 -19 21
    -35 13 -11 -6 -20 -17 -20 -25 0 -20 -7 -19 -31 4 -22 20 -120 61 -167 68 -15
    3 -64 7 -109 10 -77 5 -83 4 -83 -15 0 -16 11 -21 73 -31 39 -7 111 -28 158
    -47 48 -18 96 -34 107 -34 12 0 23 -3 25 -7 7 -12 -29 -265 -57 -398 -29 -138
    -45 -197 -107 -387 l-44 -138 -31 0 c-44 0 -102 22 -182 69 -114 66 -185 101
    -209 101 -12 0 -24 4 -27 8 -5 8 48 179 58 190 3 3 12 -1 20 -7 11 -9 20 -10
    36 -1 27 14 22 44 -8 48 -28 4 -28 21 3 109 57 165 139 492 129 518 -11 27
    -36 12 -51 -30 -8 -22 -27 -89 -44 -150 -16 -60 -34 -119 -39 -130 -18 -40
    -100 -275 -100 -289 0 -11 -18 -14 -82 -14 -46 0 -94 -5 -108 -10 -24 -9 -27
    -6 -101 142 -42 83 -97 201 -122 261 -79 192 -107 245 -128 245 -25 0 -1 -78
    67 -213 13 -27 24 -53 24 -58 0 -21 -18 2 -44 55 -16 33 -68 99 -133 168 -58
    62 -117 128 -131 146 -24 32 -72 45 -72 20 0 -9 -3 -9 -12 0 -16 16 -16 16
    -70 -16z m235 -190 c171 -178 225 -252 187 -252 -5 0 -26 -19 -47 -42 -21 -23
    -62 -65 -92 -93 -35 -35 -52 -58 -49 -71 6 -35 37 -27 94 26 57 51 144 156
    144 172 0 21 19 -6 53 -75 20 -41 37 -78 37 -81 0 -3 -10 -6 -22 -6 -26 0
    -280 -255 -300 -302 -12 -27 -13 -27 -51 50 -68 135 -154 272 -273 435 -63 87
    -114 162 -112 167 2 5 57 58 123 119 66 61 126 117 134 125 12 13 18 10 43
    -25 15 -22 74 -88 131 -147z m717 -570 c0 -14 -36 -43 -43 -35 -4 3 0 15 10
    25 17 19 33 24 33 10z"/>
    <path d="M870 1416 c0 -26 -31 -41 -100 -50 -50 -5 -64 -13 -83 -46 -14 -23
    -15 -34 -7 -50 15 -28 25 -25 49 15 17 30 26 35 58 35 43 0 111 28 132 54 11
    13 11 22 3 41 -16 34 -52 34 -52 1z"/>
    <path d="M940 1257 c-62 -66 -74 -90 -60 -118 13 -24 29 -24 37 -1 4 9 35 48
    69 86 34 38 60 75 57 82 -10 26 -49 7 -103 -49z"/>
    <path d="M1540 1584 c0 -14 9 -38 20 -54 11 -15 35 -61 54 -101 111 -245 104
    -224 80 -215 -23 9 -154 37 -189 40 -56 6 -133 -75 -105 -109 11 -13 17 -9 50
    27 l38 43 48 -15 c27 -7 79 -16 117 -18 54 -3 67 -1 67 11 0 10 7 13 19 10 10
    -3 22 0 25 5 22 36 -87 284 -157 357 -50 51 -67 56 -67 19z"/>
    <path d="M1190 1590 c-15 -3 -26 -14 -28 -27 -3 -18 2 -21 35 -21 21 1 61 -2
    88 -6 28 -3 92 -9 143 -12 80 -6 92 -5 92 9 0 33 -42 46 -165 52 -66 4 -124 8
    -130 9 -5 1 -21 0 -35 -4z"/>
    <path d="M1388 1466 c-47 -20 -113 -111 -102 -140 11 -27 31 -18 71 33 50 65
    64 70 145 59 108 -16 128 6 41 43 -50 21 -114 24 -155 5z"/>
    <path d="M1962 1248 c-19 -19 -14 -31 9 -25 14 4 23 -1 31 -18 18 -39 48 -48
    133 -40 63 6 76 10 73 23 -3 13 -15 17 -53 17 -28 -1 -57 -4 -66 -9 -12 -5
    -27 3 -53 28 -37 38 -54 44 -74 24z"/>
    <path d="M1953 1017 c-17 -7 -35 -15 -39 -19 -4 -5 -16 -8 -26 -8 -11 0 -18
    -7 -18 -20 0 -26 24 -26 89 -1 48 20 49 20 66 1 25 -27 99 -62 118 -54 23 8
    10 32 -27 49 -17 9 -46 26 -65 40 -37 28 -51 29 -98 12z"/>
    <path d="M1940 797 c0 -7 24 -21 53 -32 28 -11 55 -21 60 -23 4 -2 7 1 7 7 0
    12 -49 39 -92 52 -20 5 -28 4 -28 -4z"/>
    </g>
    </svg>